<svg width="66" height="84" viewBox="0 0 66 84" fill="none" xmlns="http://www.w3.org/2000/svg">
<circle cx="33" cy="33" r="33" fill="#EC2E2E"/>
<circle cx="32.5" cy="33.5" r="22.5" fill="white"/>
<path d="M32.5 83.0274L20.8496 62.7538L44.2323 62.8011L32.5 83.0274Z" fill="#EC2E2E"/>
<path d="M24.53 32.96H30.74V33.64H24.53V32.96ZM23.5 35.95H31.69V36.65H23.5V35.95ZM27.16 33.25H27.99V36.23H27.16V33.25ZM24.53 29.46H30.65V30.14H25.36V33.26H24.53V29.46ZM34.9492 30.32H35.6292V30.7C35.6292 32.28 34.6192 33.56 33.1092 34.07L32.7092 33.42C34.0492 33 34.9492 31.92 34.9492 30.7V30.32ZM35.0992 30.32H35.7792V30.7C35.7792 31.82 36.6592 32.85 37.9792 33.25L37.5792 33.9C36.0792 33.42 35.0992 32.18 35.0992 30.7V30.32ZM32.9492 29.85H37.7692V30.52H32.9492V29.85ZM34.9492 28.7H35.7792V30.18H34.9492V28.7ZM38.8792 28.74H39.7092V34.25H38.8792V28.74ZM39.4792 31.15H41.0492V31.84H39.4792V31.15ZM33.8392 34.73H39.7092V37.79H38.8792V35.41H33.8392V34.73Z" fill="black"/>
</svg>
