<svg width="66" height="84" viewBox="0 0 66 84" fill="none" xmlns="http://www.w3.org/2000/svg">
<circle cx="33" cy="33" r="33" fill="#04D9B2"/>
<circle cx="32.5" cy="33.5" r="22.5" fill="white"/>
<path d="M32.5 83.0274L20.8496 62.7538L44.2323 62.8011L32.5 83.0274Z" fill="#04D9B2"/>
<path d="M27.16 33.24H27.99V34.61H27.16V33.24ZM23.5 32.75H31.66V33.39H23.5V32.75ZM27.17 28.68H27.99V29.78H27.17V28.68ZM27.13 29.86H27.86V30C27.86 31.42 26.17 32.18 24.17 32.35L23.93 31.71C25.71 31.6 27.13 30.97 27.13 30V29.86ZM27.3 29.86H28.03V30C28.03 30.97 29.45 31.6 31.22 31.71L30.98 32.35C28.98 32.18 27.3 31.42 27.3 30V29.86ZM24.33 29.53H30.83V30.16H24.33V29.53ZM24.48 34.21H30.62V36.2H25.32V37.29H24.5V35.61H29.8V34.84H24.48V34.21ZM24.5 37.05H30.89V37.68H24.5V37.05ZM33.0692 29.11H33.8892V30.41H36.4392V29.11H37.2492V33.06H33.0692V29.11ZM33.8892 31.06V32.39H36.4392V31.06H33.8892ZM38.8792 28.74H39.7092V33.4H38.8792V28.74ZM39.3492 30.68H41.0392V31.37H39.3492V30.68ZM33.9692 33.84H39.7092V36.03H34.8092V37.39H33.9892V35.41H38.8992V34.5H33.9692V33.84ZM33.9892 37.02H40.0392V37.68H33.9892V37.02Z" fill="black"/>
</svg>
