<svg width="49" height="26" viewBox="0 0 49 26" fill="none" xmlns="http://www.w3.org/2000/svg">
<rect opacity="0.7" width="48.6111" height="26" rx="13" fill="#04D9B2"/>
<path d="M12.0734 14.21H20.2634V14.9H12.0734V14.21ZM15.7534 14.41H16.5734V17.79H15.7534V14.41ZM13.1634 12.61H19.3534V13.29H13.1634V12.61ZM13.1634 9.16H19.2534V9.83H13.9834V12.81H13.1634V9.16ZM13.7434 10.87H19.0334V11.52H13.7434V10.87ZM23.5126 10.03H24.1726V11.5C24.1726 13.38 23.0226 15.32 21.6126 16.04L21.1326 15.38C22.4226 14.75 23.5126 13.03 23.5126 11.5V10.03ZM23.6626 10.03H24.3226V11.5C24.3226 12.93 25.3426 14.54 26.6526 15.16L26.1826 15.82C24.7526 15.11 23.6626 13.29 23.6626 11.5V10.03ZM21.4526 9.66H26.3226V10.36H21.4526V9.66ZM27.3926 8.74H28.2326V17.78H27.3926V8.74ZM28.0326 12.39H29.7126V13.09H28.0326V12.39ZM32.7118 10.03H33.3718V11.5C33.3718 13.38 32.2218 15.32 30.8118 16.04L30.3318 15.38C31.6218 14.75 32.7118 13.03 32.7118 11.5V10.03ZM32.8618 10.03H33.5218V11.5C33.5218 12.93 34.5418 14.54 35.8518 15.16L35.3818 15.82C33.9518 15.11 32.8618 13.29 32.8618 11.5V10.03ZM30.6518 9.66H35.5218V10.36H30.6518V9.66ZM36.5918 8.74H37.4318V17.78H36.5918V8.74ZM37.2318 12.39H38.9118V13.09H37.2318V12.39Z" fill="black"/>
</svg>
