<svg width="132" height="132" viewBox="0 0 132 132" fill="none" xmlns="http://www.w3.org/2000/svg">
<path d="M1 1H6.2V6.2H1V1Z" fill="black"/>
<path d="M6.2 1H11.4V6.2H6.2V1Z" fill="black"/>
<path d="M11.4 1H16.6V6.2H11.4V1Z" fill="black"/>
<path d="M16.6 1H21.8V6.2H16.6V1Z" fill="black"/>
<path d="M21.8 1H27V6.2H21.8V1Z" fill="black"/>
<path d="M27 1H32.2V6.2H27V1Z" fill="black"/>
<path d="M32.2 1H37.4V6.2H32.2V1Z" fill="black"/>
<path d="M47.8 1H53V6.2H47.8V1Z" fill="black"/>
<path d="M53 1H58.2V6.2H53V1Z" fill="black"/>
<path d="M58.2 1H63.4V6.2H58.2V1Z" fill="black"/>
<path d="M63.4 1H68.6V6.2H63.4V1Z" fill="black"/>
<path d="M73.8 1H79V6.2H73.8V1Z" fill="black"/>
<path d="M79 1H84.2V6.2H79V1Z" fill="black"/>
<path d="M84.2 1H89.4V6.2H84.2V1Z" fill="black"/>
<path d="M94.6 1H99.8V6.2H94.6V1Z" fill="black"/>
<path d="M99.8 1H105V6.2H99.8V1Z" fill="black"/>
<path d="M105 1H110.2V6.2H105V1Z" fill="black"/>
<path d="M110.2 1H115.4V6.2H110.2V1Z" fill="black"/>
<path d="M115.4 1H120.6V6.2H115.4V1Z" fill="black"/>
<path d="M120.6 1H125.8V6.2H120.6V1Z" fill="black"/>
<path d="M125.8 1H131V6.2H125.8V1Z" fill="black"/>
<path d="M1 6.2H6.2V11.4H1V6.2Z" fill="black"/>
<path d="M32.2 6.2H37.4V11.4H32.2V6.2Z" fill="black"/>
<path d="M47.8 6.2H53V11.4H47.8V6.2Z" fill="black"/>
<path d="M53 6.2H58.2V11.4H53V6.2Z" fill="black"/>
<path d="M63.4 6.2H68.6V11.4H63.4V6.2Z" fill="black"/>
<path d="M68.6 6.2H73.8V11.4H68.6V6.2Z" fill="black"/>
<path d="M73.8 6.2H79V11.4H73.8V6.2Z" fill="black"/>
<path d="M84.2 6.2H89.4V11.4H84.2V6.2Z" fill="black"/>
<path d="M94.6 6.2H99.8V11.4H94.6V6.2Z" fill="black"/>
<path d="M125.8 6.2H131V11.4H125.8V6.2Z" fill="black"/>
<path d="M1 11.4H6.2V16.6H1V11.4Z" fill="black"/>
<path d="M11.4 11.4H16.6V16.6H11.4V11.4Z" fill="black"/>
<path d="M16.6 11.4H21.8V16.6H16.6V11.4Z" fill="black"/>
<path d="M21.8 11.4H27V16.6H21.8V11.4Z" fill="black"/>
<path d="M32.2 11.4H37.4V16.6H32.2V11.4Z" fill="black"/>
<path d="M42.6 11.4H47.8V16.6H42.6V11.4Z" fill="black"/>
<path d="M47.8 11.4H53V16.6H47.8V11.4Z" fill="black"/>
<path d="M53 11.4H58.2V16.6H53V11.4Z" fill="black"/>
<path d="M58.2 11.4H63.4V16.6H58.2V11.4Z" fill="black"/>
<path d="M68.6 11.4H73.8V16.6H68.6V11.4Z" fill="black"/>
<path d="M73.8 11.4H79V16.6H73.8V11.4Z" fill="black"/>
<path d="M94.6 11.4H99.8V16.6H94.6V11.4Z" fill="black"/>
<path d="M105 11.4H110.2V16.6H105V11.4Z" fill="black"/>
<path d="M110.2 11.4H115.4V16.6H110.2V11.4Z" fill="black"/>
<path d="M115.4 11.4H120.6V16.6H115.4V11.4Z" fill="black"/>
<path d="M125.8 11.4H131V16.6H125.8V11.4Z" fill="black"/>
<path d="M1 16.6H6.2V21.8H1V16.6Z" fill="black"/>
<path d="M11.4 16.6H16.6V21.8H11.4V16.6Z" fill="black"/>
<path d="M16.6 16.6H21.8V21.8H16.6V16.6Z" fill="black"/>
<path d="M21.8 16.6H27V21.8H21.8V16.6Z" fill="black"/>
<path d="M32.2 16.6H37.4V21.8H32.2V16.6Z" fill="black"/>
<path d="M42.6 16.6H47.8V21.8H42.6V16.6Z" fill="black"/>
<path d="M58.2 16.6H63.4V21.8H58.2V16.6Z" fill="black"/>
<path d="M68.6 16.6H73.8V21.8H68.6V16.6Z" fill="black"/>
<path d="M73.8 16.6H79V21.8H73.8V16.6Z" fill="black"/>
<path d="M79 16.6H84.2V21.8H79V16.6Z" fill="black"/>
<path d="M84.2 16.6H89.4V21.8H84.2V16.6Z" fill="black"/>
<path d="M94.6 16.6H99.8V21.8H94.6V16.6Z" fill="black"/>
<path d="M105 16.6H110.2V21.8H105V16.6Z" fill="black"/>
<path d="M110.2 16.6H115.4V21.8H110.2V16.6Z" fill="black"/>
<path d="M115.4 16.6H120.6V21.8H115.4V16.6Z" fill="black"/>
<path d="M125.8 16.6H131V21.8H125.8V16.6Z" fill="black"/>
<path d="M1 21.8H6.2V27H1V21.8Z" fill="black"/>
<path d="M11.4 21.8H16.6V27H11.4V21.8Z" fill="black"/>
<path d="M16.6 21.8H21.8V27H16.6V21.8Z" fill="black"/>
<path d="M21.8 21.8H27V27H21.8V21.8Z" fill="black"/>
<path d="M32.2 21.8H37.4V27H32.2V21.8Z" fill="black"/>
<path d="M53 21.8H58.2V27H53V21.8Z" fill="black"/>
<path d="M58.2 21.8H63.4V27H58.2V21.8Z" fill="black"/>
<path d="M79 21.8H84.2V27H79V21.8Z" fill="black"/>
<path d="M94.6 21.8H99.8V27H94.6V21.8Z" fill="black"/>
<path d="M105 21.8H110.2V27H105V21.8Z" fill="black"/>
<path d="M110.2 21.8H115.4V27H110.2V21.8Z" fill="black"/>
<path d="M115.4 21.8H120.6V27H115.4V21.8Z" fill="black"/>
<path d="M125.8 21.8H131V27H125.8V21.8Z" fill="black"/>
<path d="M1 27H6.2V32.2H1V27Z" fill="black"/>
<path d="M32.2 27H37.4V32.2H32.2V27Z" fill="black"/>
<path d="M47.8 27H53V32.2H47.8V27Z" fill="black"/>
<path d="M53 27H58.2V32.2H53V27Z" fill="black"/>
<path d="M68.6 27H73.8V32.2H68.6V27Z" fill="black"/>
<path d="M73.8 27H79V32.2H73.8V27Z" fill="black"/>
<path d="M79 27H84.2V32.2H79V27Z" fill="black"/>
<path d="M84.2 27H89.4V32.2H84.2V27Z" fill="black"/>
<path d="M94.6 27H99.8V32.2H94.6V27Z" fill="black"/>
<path d="M125.8 27H131V32.2H125.8V27Z" fill="black"/>
<path d="M1 32.2H6.2V37.4H1V32.2Z" fill="black"/>
<path d="M6.2 32.2H11.4V37.4H6.2V32.2Z" fill="black"/>
<path d="M11.4 32.2H16.6V37.4H11.4V32.2Z" fill="black"/>
<path d="M16.6 32.2H21.8V37.4H16.6V32.2Z" fill="black"/>
<path d="M21.8 32.2H27V37.4H21.8V32.2Z" fill="black"/>
<path d="M27 32.2H32.2V37.4H27V32.2Z" fill="black"/>
<path d="M32.2 32.2H37.4V37.4H32.2V32.2Z" fill="black"/>
<path d="M42.6 32.2H47.8V37.4H42.6V32.2Z" fill="black"/>
<path d="M53 32.2H58.2V37.4H53V32.2Z" fill="black"/>
<path d="M63.4 32.2H68.6V37.4H63.4V32.2Z" fill="black"/>
<path d="M73.8 32.2H79V37.4H73.8V32.2Z" fill="black"/>
<path d="M84.2 32.2H89.4V37.4H84.2V32.2Z" fill="black"/>
<path d="M94.6 32.2H99.8V37.4H94.6V32.2Z" fill="black"/>
<path d="M99.8 32.2H105V37.4H99.8V32.2Z" fill="black"/>
<path d="M105 32.2H110.2V37.4H105V32.2Z" fill="black"/>
<path d="M110.2 32.2H115.4V37.4H110.2V32.2Z" fill="black"/>
<path d="M115.4 32.2H120.6V37.4H115.4V32.2Z" fill="black"/>
<path d="M120.6 32.2H125.8V37.4H120.6V32.2Z" fill="black"/>
<path d="M125.8 32.2H131V37.4H125.8V32.2Z" fill="black"/>
<path d="M47.8 37.4H53V42.6H47.8V37.4Z" fill="black"/>
<path d="M53 37.4H58.2V42.6H53V37.4Z" fill="black"/>
<path d="M58.2 37.4H63.4V42.6H58.2V37.4Z" fill="black"/>
<path d="M68.6 37.4H73.8V42.6H68.6V37.4Z" fill="black"/>
<path d="M73.8 37.4H79V42.6H73.8V37.4Z" fill="black"/>
<path d="M16.6 42.6H21.8V47.8H16.6V42.6Z" fill="black"/>
<path d="M21.8 42.6H27V47.8H21.8V42.6Z" fill="black"/>
<path d="M32.2 42.6H37.4V47.8H32.2V42.6Z" fill="black"/>
<path d="M37.4 42.6H42.6V47.8H37.4V42.6Z" fill="black"/>
<path d="M58.2 42.6H63.4V47.8H58.2V42.6Z" fill="black"/>
<path d="M63.4 42.6H68.6V47.8H63.4V42.6Z" fill="black"/>
<path d="M68.6 42.6H73.8V47.8H68.6V42.6Z" fill="black"/>
<path d="M79 42.6H84.2V47.8H79V42.6Z" fill="black"/>
<path d="M84.2 42.6H89.4V47.8H84.2V42.6Z" fill="black"/>
<path d="M110.2 42.6H115.4V47.8H110.2V42.6Z" fill="black"/>
<path d="M115.4 42.6H120.6V47.8H115.4V42.6Z" fill="black"/>
<path d="M1 47.8H6.2V53H1V47.8Z" fill="black"/>
<path d="M6.2 47.8H11.4V53H6.2V47.8Z" fill="black"/>
<path d="M47.8 47.8H53V53H47.8V47.8Z" fill="black"/>
<path d="M58.2 47.8H63.4V53H58.2V47.8Z" fill="black"/>
<path d="M79 47.8H84.2V53H79V47.8Z" fill="black"/>
<path d="M94.6 47.8H99.8V53H94.6V47.8Z" fill="black"/>
<path d="M105 47.8H110.2V53H105V47.8Z" fill="black"/>
<path d="M110.2 47.8H115.4V53H110.2V47.8Z" fill="black"/>
<path d="M115.4 47.8H120.6V53H115.4V47.8Z" fill="black"/>
<path d="M120.6 47.8H125.8V53H120.6V47.8Z" fill="black"/>
<path d="M125.8 47.8H131V53H125.8V47.8Z" fill="black"/>
<path d="M1 53H6.2V58.2H1V53Z" fill="black"/>
<path d="M6.2 53H11.4V58.2H6.2V53Z" fill="black"/>
<path d="M11.4 53H16.6V58.2H11.4V53Z" fill="black"/>
<path d="M21.8 53H27V58.2H21.8V53Z" fill="black"/>
<path d="M27 53H32.2V58.2H27V53Z" fill="black"/>
<path d="M32.2 53H37.4V58.2H32.2V53Z" fill="black"/>
<path d="M37.4 53H42.6V58.2H37.4V53Z" fill="black"/>
<path d="M47.8 53H53V58.2H47.8V53Z" fill="black"/>
<path d="M53 53H58.2V58.2H53V53Z" fill="black"/>
<path d="M63.4 53H68.6V58.2H63.4V53Z" fill="black"/>
<path d="M73.8 53H79V58.2H73.8V53Z" fill="black"/>
<path d="M79 53H84.2V58.2H79V53Z" fill="black"/>
<path d="M84.2 53H89.4V58.2H84.2V53Z" fill="black"/>
<path d="M89.4 53H94.6V58.2H89.4V53Z" fill="black"/>
<path d="M94.6 53H99.8V58.2H94.6V53Z" fill="black"/>
<path d="M99.8 53H105V58.2H99.8V53Z" fill="black"/>
<path d="M110.2 53H115.4V58.2H110.2V53Z" fill="black"/>
<path d="M120.6 53H125.8V58.2H120.6V53Z" fill="black"/>
<path d="M6.2 58.2H11.4V63.4H6.2V58.2Z" fill="black"/>
<path d="M11.4 58.2H16.6V63.4H11.4V58.2Z" fill="black"/>
<path d="M16.6 58.2H21.8V63.4H16.6V58.2Z" fill="black"/>
<path d="M37.4 58.2H42.6V63.4H37.4V58.2Z" fill="black"/>
<path d="M42.6 58.2H47.8V63.4H42.6V58.2Z" fill="black"/>
<path d="M47.8 58.2H53V63.4H47.8V58.2Z" fill="black"/>
<path d="M63.4 58.2H68.6V63.4H63.4V58.2Z" fill="black"/>
<path d="M68.6 58.2H73.8V63.4H68.6V58.2Z" fill="black"/>
<path d="M84.2 58.2H89.4V63.4H84.2V58.2Z" fill="black"/>
<path d="M89.4 58.2H94.6V63.4H89.4V58.2Z" fill="black"/>
<path d="M94.6 58.2H99.8V63.4H94.6V58.2Z" fill="black"/>
<path d="M105 58.2H110.2V63.4H105V58.2Z" fill="black"/>
<path d="M6.2 63.4H11.4V68.6H6.2V63.4Z" fill="black"/>
<path d="M11.4 63.4H16.6V68.6H11.4V63.4Z" fill="black"/>
<path d="M21.8 63.4H27V68.6H21.8V63.4Z" fill="black"/>
<path d="M32.2 63.4H37.4V68.6H32.2V63.4Z" fill="black"/>
<path d="M37.4 63.4H42.6V68.6H37.4V63.4Z" fill="black"/>
<path d="M42.6 63.4H47.8V68.6H42.6V63.4Z" fill="black"/>
<path d="M58.2 63.4H63.4V68.6H58.2V63.4Z" fill="black"/>
<path d="M63.4 63.4H68.6V68.6H63.4V63.4Z" fill="black"/>
<path d="M68.6 63.4H73.8V68.6H68.6V63.4Z" fill="black"/>
<path d="M89.4 63.4H94.6V68.6H89.4V63.4Z" fill="black"/>
<path d="M94.6 63.4H99.8V68.6H94.6V63.4Z" fill="black"/>
<path d="M99.8 63.4H105V68.6H99.8V63.4Z" fill="black"/>
<path d="M105 63.4H110.2V68.6H105V63.4Z" fill="black"/>
<path d="M110.2 63.4H115.4V68.6H110.2V63.4Z" fill="black"/>
<path d="M120.6 63.4H125.8V68.6H120.6V63.4Z" fill="black"/>
<path d="M1 68.6H6.2V73.8H1V68.6Z" fill="black"/>
<path d="M11.4 68.6H16.6V73.8H11.4V68.6Z" fill="black"/>
<path d="M16.6 68.6H21.8V73.8H16.6V68.6Z" fill="black"/>
<path d="M37.4 68.6H42.6V73.8H37.4V68.6Z" fill="black"/>
<path d="M47.8 68.6H53V73.8H47.8V68.6Z" fill="black"/>
<path d="M58.2 68.6H63.4V73.8H58.2V68.6Z" fill="black"/>
<path d="M68.6 68.6H73.8V73.8H68.6V68.6Z" fill="black"/>
<path d="M73.8 68.6H79V73.8H73.8V68.6Z" fill="black"/>
<path d="M94.6 68.6H99.8V73.8H94.6V68.6Z" fill="black"/>
<path d="M99.8 68.6H105V73.8H99.8V68.6Z" fill="black"/>
<path d="M110.2 68.6H115.4V73.8H110.2V68.6Z" fill="black"/>
<path d="M115.4 68.6H120.6V73.8H115.4V68.6Z" fill="black"/>
<path d="M125.8 68.6H131V73.8H125.8V68.6Z" fill="black"/>
<path d="M1 73.8H6.2V79H1V73.8Z" fill="black"/>
<path d="M6.2 73.8H11.4V79H6.2V73.8Z" fill="black"/>
<path d="M16.6 73.8H21.8V79H16.6V73.8Z" fill="black"/>
<path d="M32.2 73.8H37.4V79H32.2V73.8Z" fill="black"/>
<path d="M53 73.8H58.2V79H53V73.8Z" fill="black"/>
<path d="M58.2 73.8H63.4V79H58.2V73.8Z" fill="black"/>
<path d="M68.6 73.8H73.8V79H68.6V73.8Z" fill="black"/>
<path d="M73.8 73.8H79V79H73.8V73.8Z" fill="black"/>
<path d="M79 73.8H84.2V79H79V73.8Z" fill="black"/>
<path d="M89.4 73.8H94.6V79H89.4V73.8Z" fill="black"/>
<path d="M99.8 73.8H105V79H99.8V73.8Z" fill="black"/>
<path d="M105 73.8H110.2V79H105V73.8Z" fill="black"/>
<path d="M115.4 73.8H120.6V79H115.4V73.8Z" fill="black"/>
<path d="M125.8 73.8H131V79H125.8V73.8Z" fill="black"/>
<path d="M1 79H6.2V84.2H1V79Z" fill="black"/>
<path d="M16.6 79H21.8V84.2H16.6V79Z" fill="black"/>
<path d="M21.8 79H27V84.2H21.8V79Z" fill="black"/>
<path d="M37.4 79H42.6V84.2H37.4V79Z" fill="black"/>
<path d="M84.2 79H89.4V84.2H84.2V79Z" fill="black"/>
<path d="M99.8 79H105V84.2H99.8V79Z" fill="black"/>
<path d="M105 79H110.2V84.2H105V79Z" fill="black"/>
<path d="M110.2 79H115.4V84.2H110.2V79Z" fill="black"/>
<path d="M115.4 79H120.6V84.2H115.4V79Z" fill="black"/>
<path d="M125.8 79H131V84.2H125.8V79Z" fill="black"/>
<path d="M1 84.2H6.2V89.4H1V84.2Z" fill="black"/>
<path d="M11.4 84.2H16.6V89.4H11.4V84.2Z" fill="black"/>
<path d="M16.6 84.2H21.8V89.4H16.6V84.2Z" fill="black"/>
<path d="M21.8 84.2H27V89.4H21.8V84.2Z" fill="black"/>
<path d="M27 84.2H32.2V89.4H27V84.2Z" fill="black"/>
<path d="M32.2 84.2H37.4V89.4H32.2V84.2Z" fill="black"/>
<path d="M37.4 84.2H42.6V89.4H37.4V84.2Z" fill="black"/>
<path d="M63.4 84.2H68.6V89.4H63.4V84.2Z" fill="black"/>
<path d="M68.6 84.2H73.8V89.4H68.6V84.2Z" fill="black"/>
<path d="M73.8 84.2H79V89.4H73.8V84.2Z" fill="black"/>
<path d="M79 84.2H84.2V89.4H79V84.2Z" fill="black"/>
<path d="M84.2 84.2H89.4V89.4H84.2V84.2Z" fill="black"/>
<path d="M89.4 84.2H94.6V89.4H89.4V84.2Z" fill="black"/>
<path d="M94.6 84.2H99.8V89.4H94.6V84.2Z" fill="black"/>
<path d="M99.8 84.2H105V89.4H99.8V84.2Z" fill="black"/>
<path d="M105 84.2H110.2V89.4H105V84.2Z" fill="black"/>
<path d="M42.6 89.4H47.8V94.6H42.6V89.4Z" fill="black"/>
<path d="M47.8 89.4H53V94.6H47.8V89.4Z" fill="black"/>
<path d="M58.2 89.4H63.4V94.6H58.2V89.4Z" fill="black"/>
<path d="M63.4 89.4H68.6V94.6H63.4V89.4Z" fill="black"/>
<path d="M68.6 89.4H73.8V94.6H68.6V89.4Z" fill="black"/>
<path d="M84.2 89.4H89.4V94.6H84.2V89.4Z" fill="black"/>
<path d="M105 89.4H110.2V94.6H105V89.4Z" fill="black"/>
<path d="M110.2 89.4H115.4V94.6H110.2V89.4Z" fill="black"/>
<path d="M115.4 89.4H120.6V94.6H115.4V89.4Z" fill="black"/>
<path d="M125.8 89.4H131V94.6H125.8V89.4Z" fill="black"/>
<path d="M1 94.6H6.2V99.8H1V94.6Z" fill="black"/>
<path d="M6.2 94.6H11.4V99.8H6.2V94.6Z" fill="black"/>
<path d="M11.4 94.6H16.6V99.8H11.4V94.6Z" fill="black"/>
<path d="M16.6 94.6H21.8V99.8H16.6V94.6Z" fill="black"/>
<path d="M21.8 94.6H27V99.8H21.8V94.6Z" fill="black"/>
<path d="M27 94.6H32.2V99.8H27V94.6Z" fill="black"/>
<path d="M32.2 94.6H37.4V99.8H32.2V94.6Z" fill="black"/>
<path d="M42.6 94.6H47.8V99.8H42.6V94.6Z" fill="black"/>
<path d="M53 94.6H58.2V99.8H53V94.6Z" fill="black"/>
<path d="M58.2 94.6H63.4V99.8H58.2V94.6Z" fill="black"/>
<path d="M73.8 94.6H79V99.8H73.8V94.6Z" fill="black"/>
<path d="M79 94.6H84.2V99.8H79V94.6Z" fill="black"/>
<path d="M84.2 94.6H89.4V99.8H84.2V94.6Z" fill="black"/>
<path d="M94.6 94.6H99.8V99.8H94.6V94.6Z" fill="black"/>
<path d="M105 94.6H110.2V99.8H105V94.6Z" fill="black"/>
<path d="M1 99.8H6.2V105H1V99.8Z" fill="black"/>
<path d="M32.2 99.8H37.4V105H32.2V99.8Z" fill="black"/>
<path d="M47.8 99.8H53V105H47.8V99.8Z" fill="black"/>
<path d="M73.8 99.8H79V105H73.8V99.8Z" fill="black"/>
<path d="M79 99.8H84.2V105H79V99.8Z" fill="black"/>
<path d="M84.2 99.8H89.4V105H84.2V99.8Z" fill="black"/>
<path d="M105 99.8H110.2V105H105V99.8Z" fill="black"/>
<path d="M1 105H6.2V110.2H1V105Z" fill="black"/>
<path d="M11.4 105H16.6V110.2H11.4V105Z" fill="black"/>
<path d="M16.6 105H21.8V110.2H16.6V105Z" fill="black"/>
<path d="M21.8 105H27V110.2H21.8V105Z" fill="black"/>
<path d="M32.2 105H37.4V110.2H32.2V105Z" fill="black"/>
<path d="M42.6 105H47.8V110.2H42.6V105Z" fill="black"/>
<path d="M47.8 105H53V110.2H47.8V105Z" fill="black"/>
<path d="M84.2 105H89.4V110.2H84.2V105Z" fill="black"/>
<path d="M89.4 105H94.6V110.2H89.4V105Z" fill="black"/>
<path d="M94.6 105H99.8V110.2H94.6V105Z" fill="black"/>
<path d="M99.8 105H105V110.2H99.8V105Z" fill="black"/>
<path d="M105 105H110.2V110.2H105V105Z" fill="black"/>
<path d="M120.6 105H125.8V110.2H120.6V105Z" fill="black"/>
<path d="M125.8 105H131V110.2H125.8V105Z" fill="black"/>
<path d="M1 110.2H6.2V115.4H1V110.2Z" fill="black"/>
<path d="M11.4 110.2H16.6V115.4H11.4V110.2Z" fill="black"/>
<path d="M16.6 110.2H21.8V115.4H16.6V110.2Z" fill="black"/>
<path d="M21.8 110.2H27V115.4H21.8V110.2Z" fill="black"/>
<path d="M32.2 110.2H37.4V115.4H32.2V110.2Z" fill="black"/>
<path d="M42.6 110.2H47.8V115.4H42.6V110.2Z" fill="black"/>
<path d="M53 110.2H58.2V115.4H53V110.2Z" fill="black"/>
<path d="M58.2 110.2H63.4V115.4H58.2V110.2Z" fill="black"/>
<path d="M68.6 110.2H73.8V115.4H68.6V110.2Z" fill="black"/>
<path d="M73.8 110.2H79V115.4H73.8V110.2Z" fill="black"/>
<path d="M89.4 110.2H94.6V115.4H89.4V110.2Z" fill="black"/>
<path d="M105 110.2H110.2V115.4H105V110.2Z" fill="black"/>
<path d="M115.4 110.2H120.6V115.4H115.4V110.2Z" fill="black"/>
<path d="M125.8 110.2H131V115.4H125.8V110.2Z" fill="black"/>
<path d="M1 115.4H6.2V120.6H1V115.4Z" fill="black"/>
<path d="M11.4 115.4H16.6V120.6H11.4V115.4Z" fill="black"/>
<path d="M16.6 115.4H21.8V120.6H16.6V115.4Z" fill="black"/>
<path d="M21.8 115.4H27V120.6H21.8V115.4Z" fill="black"/>
<path d="M32.2 115.4H37.4V120.6H32.2V115.4Z" fill="black"/>
<path d="M47.8 115.4H53V120.6H47.8V115.4Z" fill="black"/>
<path d="M58.2 115.4H63.4V120.6H58.2V115.4Z" fill="black"/>
<path d="M63.4 115.4H68.6V120.6H63.4V115.4Z" fill="black"/>
<path d="M73.8 115.4H79V120.6H73.8V115.4Z" fill="black"/>
<path d="M84.2 115.4H89.4V120.6H84.2V115.4Z" fill="black"/>
<path d="M89.4 115.4H94.6V120.6H89.4V115.4Z" fill="black"/>
<path d="M94.6 115.4H99.8V120.6H94.6V115.4Z" fill="black"/>
<path d="M99.8 115.4H105V120.6H99.8V115.4Z" fill="black"/>
<path d="M105 115.4H110.2V120.6H105V115.4Z" fill="black"/>
<path d="M120.6 115.4H125.8V120.6H120.6V115.4Z" fill="black"/>
<path d="M125.8 115.4H131V120.6H125.8V115.4Z" fill="black"/>
<path d="M1 120.6H6.2V125.8H1V120.6Z" fill="black"/>
<path d="M32.2 120.6H37.4V125.8H32.2V120.6Z" fill="black"/>
<path d="M53 120.6H58.2V125.8H53V120.6Z" fill="black"/>
<path d="M58.2 120.6H63.4V125.8H58.2V120.6Z" fill="black"/>
<path d="M73.8 120.6H79V125.8H73.8V120.6Z" fill="black"/>
<path d="M79 120.6H84.2V125.8H79V120.6Z" fill="black"/>
<path d="M84.2 120.6H89.4V125.8H84.2V120.6Z" fill="black"/>
<path d="M89.4 120.6H94.6V125.8H89.4V120.6Z" fill="black"/>
<path d="M94.6 120.6H99.8V125.8H94.6V120.6Z" fill="black"/>
<path d="M110.2 120.6H115.4V125.8H110.2V120.6Z" fill="black"/>
<path d="M120.6 120.6H125.8V125.8H120.6V120.6Z" fill="black"/>
<path d="M1 125.8H6.2V131H1V125.8Z" fill="black"/>
<path d="M6.2 125.8H11.4V131H6.2V125.8Z" fill="black"/>
<path d="M11.4 125.8H16.6V131H11.4V125.8Z" fill="black"/>
<path d="M16.6 125.8H21.8V131H16.6V125.8Z" fill="black"/>
<path d="M21.8 125.8H27V131H21.8V125.8Z" fill="black"/>
<path d="M27 125.8H32.2V131H27V125.8Z" fill="black"/>
<path d="M32.2 125.8H37.4V131H32.2V125.8Z" fill="black"/>
<path d="M53 125.8H58.2V131H53V125.8Z" fill="black"/>
<path d="M73.8 125.8H79V131H73.8V125.8Z" fill="black"/>
<path d="M79 125.8H84.2V131H79V125.8Z" fill="black"/>
<path d="M84.2 125.8H89.4V131H84.2V125.8Z" fill="black"/>
<path d="M94.6 125.8H99.8V131H94.6V125.8Z" fill="black"/>
<path d="M110.2 125.8H115.4V131H110.2V125.8Z" fill="black"/>
<path d="M120.6 125.8H125.8V131H120.6V125.8Z" fill="black"/>
<path d="M125.8 125.8H131V131H125.8V125.8Z" fill="black"/>
<path d="M6.2 1H1V6.2M6.2 1V6.2M6.2 1H11.4M6.2 6.2H1M6.2 6.2H11.4M6.2 6.2V11.4M1 6.2V11.4M11.4 1V6.2M11.4 1H16.6M11.4 6.2H16.6M16.6 1V6.2M16.6 1H21.8M16.6 6.2H21.8M21.8 1V6.2M21.8 1H27M21.8 6.2H27M27 1V6.2M27 1H32.2M27 6.2H32.2M32.2 1V6.2M32.2 1H37.4V6.2M32.2 6.2H37.4M32.2 6.2V11.4M37.4 6.2V11.4M53 1H47.8V6.2M53 1V6.2M53 1H58.2M53 6.2H47.8M53 6.2H58.2M53 6.2V11.4M47.8 6.2V11.4M58.2 1V6.2M58.2 1H63.4M58.2 6.2H63.4M58.2 6.2V11.4M63.4 1V6.2M63.4 1H68.6V6.2M63.4 6.2H68.6M63.4 6.2V11.4M68.6 6.2V11.4M68.6 6.2H73.8M79 1H73.8V6.2M79 1V6.2M79 1H84.2M79 6.2H73.8M79 6.2H84.2M79 6.2V11.4M73.8 6.2V11.4M84.2 1V6.2M84.2 1H89.4V6.2M84.2 6.2H89.4M84.2 6.2V11.4H89.4V6.2M99.8 1H94.6V6.2M99.8 1V6.2M99.8 1H105M99.8 6.2H94.6M99.8 6.2H105M99.8 6.2V11.4M94.6 6.2V11.4M105 1V6.2M105 1H110.2M105 6.2H110.2M110.2 1V6.2M110.2 1H115.4M110.2 6.2H115.4M115.4 1V6.2M115.4 1H120.6M115.4 6.2H120.6M120.6 1V6.2M120.6 1H125.8M120.6 6.2H125.8M125.8 1V6.2M125.8 1H131V6.2M125.8 6.2H131M125.8 6.2V11.4M131 6.2V11.4M6.2 11.4H1M6.2 11.4V16.6M1 11.4V16.6M37.4 11.4H32.2M37.4 11.4V16.6M32.2 11.4V16.6M53 11.4H47.8M53 11.4H58.2M53 11.4V16.6M47.8 11.4H42.6V16.6M47.8 11.4V16.6M58.2 11.4V16.6M58.2 11.4H63.4M68.6 11.4H63.4M68.6 11.4H73.8M68.6 11.4V16.6M63.4 11.4V16.6M73.8 11.4H79M73.8 11.4V16.6M79 11.4V16.6M99.8 11.4H94.6M99.8 11.4V16.6M94.6 11.4V16.6M131 11.4H125.8M131 11.4V16.6M125.8 11.4V16.6M6.2 16.6H1M6.2 16.6V21.8M1 16.6V21.8M16.6 11.4H11.4V16.6M16.6 11.4V16.6M16.6 11.4H21.8M16.6 16.6H11.4M16.6 16.6H21.8M16.6 16.6V21.8M11.4 16.6V21.8M21.8 11.4V16.6M21.8 11.4H27V16.6M21.8 16.6H27M21.8 16.6V21.8M27 16.6V21.8M37.4 16.6H32.2M37.4 16.6V21.8M32.2 16.6V21.8M47.8 16.6H42.6M47.8 16.6H53M47.8 16.6V21.8H42.6V16.6M53 16.6H58.2M58.2 16.6H63.4M58.2 16.6V21.8M63.4 16.6V21.8M73.8 16.6H68.6M73.8 16.6H79M73.8 16.6V21.8M68.6 16.6V21.8H73.8M79 16.6V21.8M79 16.6H84.2M99.8 16.6H94.6M99.8 16.6V21.8M94.6 16.6V21.8M110.2 11.4H105V16.6M110.2 11.4V16.6M110.2 11.4H115.4M110.2 16.6H105M110.2 16.6H115.4M110.2 16.6V21.8M105 16.6V21.8M115.4 11.4V16.6M115.4 11.4H120.6V16.6M115.4 16.6H120.6M115.4 16.6V21.8M120.6 16.6V21.8M131 16.6H125.8M131 16.6V21.8M125.8 16.6V21.8M6.2 21.8H1M6.2 21.8V27M1 21.8V27M16.6 21.8H11.4M16.6 21.8H21.8M16.6 21.8V27M11.4 21.8V27H16.6M21.8 21.8H27M21.8 21.8V27M27 21.8V27H21.8M37.4 21.8H32.2M37.4 21.8V27M32.2 21.8V27M63.4 21.8H58.2M63.4 21.8V27H58.2M58.2 21.8H53V27M58.2 21.8V27M73.8 21.8H79M79 21.8H84.2M79 21.8V27M84.2 16.6V21.8M84.2 16.6H89.4V21.8H84.2M84.2 21.8V27M99.8 21.8H94.6M99.8 21.8V27M94.6 21.8V27M110.2 21.8H105M110.2 21.8H115.4M110.2 21.8V27M105 21.8V27H110.2M115.4 21.8H120.6M115.4 21.8V27M120.6 21.8V27H115.4M131 21.8H125.8M131 21.8V27M125.8 21.8V27M6.2 27H1M6.2 27V32.2M1 27V32.2M16.6 27H21.8M37.4 27H32.2M37.4 27V32.2M32.2 27V32.2M58.2 27H53M58.2 27V32.2M53 27H47.8V32.2M53 27V32.2M84.2 27H79M84.2 27V32.2M84.2 27H89.4V32.2M79 27H73.8M79 27V32.2M99.8 27H94.6M99.8 27V32.2M94.6 27V32.2M110.2 27H115.4M131 27H125.8M131 27V32.2M125.8 27V32.2M6.2 32.2H1M6.2 32.2V37.4M6.2 32.2H11.4M1 32.2V37.4H6.2M37.4 32.2H32.2M37.4 32.2V37.4H32.2M32.2 32.2H27M32.2 32.2V37.4M53 32.2H47.8M53 32.2H58.2M53 32.2V37.4M47.8 32.2H42.6V37.4H47.8M47.8 32.2V37.4M58.2 32.2V37.4M73.8 27H68.6V32.2M73.8 27V32.2M73.8 32.2H68.6M73.8 32.2H79M73.8 32.2V37.4M68.6 32.2H63.4V37.4M68.6 32.2V37.4M79 32.2H84.2M79 32.2V37.4M84.2 32.2H89.4M84.2 32.2V37.4H89.4V32.2M99.8 32.2H94.6M99.8 32.2V37.4M99.8 32.2H105M94.6 32.2V37.4H99.8M131 32.2H125.8M131 32.2V37.4H125.8M125.8 32.2H120.6M125.8 32.2V37.4M6.2 37.4H11.4M11.4 32.2V37.4M11.4 32.2H16.6M11.4 37.4H16.6M16.6 32.2V37.4M16.6 32.2H21.8M16.6 37.4H21.8M21.8 32.2V37.4M21.8 32.2H27M21.8 37.4H27M27 32.2V37.4M27 37.4H32.2M47.8 37.4H53M47.8 37.4V42.6H53M58.2 37.4H53M58.2 37.4V42.6M58.2 37.4H63.4M53 37.4V42.6M68.6 37.4H63.4M68.6 37.4H73.8M68.6 37.4V42.6M63.4 37.4V42.6M79 37.4H73.8M79 37.4V42.6M73.8 37.4V42.6M99.8 37.4H105M105 32.2V37.4M105 32.2H110.2M105 37.4H110.2M110.2 32.2V37.4M110.2 32.2H115.4M110.2 37.4H115.4M115.4 32.2V37.4M115.4 32.2H120.6M115.4 37.4H120.6M120.6 32.2V37.4M120.6 37.4H125.8M53 42.6H58.2M58.2 42.6H63.4M58.2 42.6V47.8M63.4 42.6V47.8M63.4 42.6H68.6M73.8 42.6H68.6M73.8 42.6H79M73.8 42.6V47.8H68.6M68.6 42.6V47.8M79 42.6H84.2M79 42.6V47.8M21.8 42.6H16.6V47.8H21.8M21.8 42.6V47.8M21.8 42.6H27V47.8H21.8M37.4 42.6H32.2V47.8H37.4M37.4 42.6V47.8M37.4 42.6H42.6V47.8H37.4M63.4 47.8H58.2M63.4 47.8H68.6M63.4 47.8V53M58.2 47.8V53M84.2 42.6V47.8M84.2 42.6H89.4V47.8H84.2M84.2 47.8H79M84.2 47.8V53M79 47.8V53M115.4 42.6H110.2V47.8M115.4 42.6V47.8M115.4 42.6H120.6V47.8M115.4 47.8H110.2M115.4 47.8H120.6M115.4 47.8V53M110.2 47.8H105V53M110.2 47.8V53M120.6 47.8V53M120.6 47.8H125.8M6.2 47.8H1V53M6.2 47.8V53M6.2 47.8H11.4V53M6.2 53H1M6.2 53H11.4M6.2 53V58.2M1 53V58.2H6.2M11.4 53V58.2M11.4 53H16.6V58.2M53 53V47.8H47.8V53M53 53H47.8M53 53V58.2M53 53H58.2M47.8 53V58.2M63.4 53H58.2M63.4 53H68.6V58.2M63.4 53V58.2M58.2 53V58.2H53M84.2 53H79M84.2 53V58.2M84.2 53H89.4M79 53H73.8V58.2M79 53V58.2M99.8 53V47.8H94.6V53M99.8 53H94.6M99.8 53V58.2M99.8 53H105M94.6 53H89.4M94.6 53V58.2M110.2 53H105M110.2 53H115.4M110.2 53V58.2M105 53V58.2M115.4 53H120.6M115.4 53V58.2H110.2M120.6 53H125.8M120.6 53V58.2H125.8V53M125.8 47.8V53M125.8 47.8H131V53H125.8M6.2 58.2H11.4M6.2 58.2V63.4M11.4 58.2H16.6M11.4 58.2V63.4M16.6 58.2V63.4M16.6 58.2H21.8M27 53H21.8V58.2M27 53V58.2M27 53H32.2M27 58.2H21.8M27 58.2H32.2M21.8 58.2V63.4M32.2 53V58.2M32.2 53H37.4M32.2 58.2H37.4M37.4 53V58.2M37.4 53H42.6V58.2M37.4 58.2H42.6M37.4 58.2V63.4M42.6 58.2V63.4M42.6 58.2H47.8M53 58.2H47.8M53 58.2V63.4H47.8M47.8 58.2V63.4M68.6 58.2H63.4M68.6 58.2V63.4M68.6 58.2H73.8M63.4 58.2V63.4M79 58.2H73.8M79 58.2H84.2M73.8 58.2V63.4M84.2 58.2H89.4M84.2 58.2V63.4H89.4M89.4 53V58.2M89.4 58.2H94.6M89.4 58.2V63.4M94.6 58.2H99.8M94.6 58.2V63.4M99.8 58.2H105M99.8 58.2V63.4M105 58.2H110.2M105 58.2V63.4M110.2 58.2V63.4M11.4 63.4H6.2M11.4 63.4H16.6M11.4 63.4V68.6M6.2 63.4V68.6M16.6 63.4H21.8M16.6 63.4V68.6M21.8 63.4H27V68.6H21.8M21.8 63.4V68.6M42.6 63.4H37.4M42.6 63.4H47.8M42.6 63.4V68.6M37.4 63.4H32.2V68.6H37.4M37.4 63.4V68.6M47.8 63.4V68.6M68.6 63.4H63.4M68.6 63.4H73.8M68.6 63.4V68.6M63.4 63.4H58.2V68.6M63.4 63.4V68.6M73.8 63.4V68.6M89.4 63.4H94.6M89.4 63.4V68.6H94.6M94.6 63.4H99.8M94.6 63.4V68.6M99.8 63.4V68.6M99.8 63.4H105M110.2 63.4H105M110.2 63.4V68.6M110.2 63.4H115.4V68.6M105 63.4V68.6M11.4 68.6H6.2M11.4 68.6H16.6M11.4 68.6V73.8M6.2 68.6H1V73.8M6.2 68.6V73.8M16.6 68.6V73.8M16.6 68.6H21.8M21.8 68.6V73.8M37.4 68.6H42.6M37.4 68.6V73.8M42.6 68.6H47.8M42.6 68.6V73.8H37.4M47.8 68.6H53V73.8M47.8 68.6V73.8H53M63.4 68.6H58.2M63.4 68.6H68.6M63.4 68.6V73.8M58.2 68.6V73.8M68.6 68.6H73.8M68.6 68.6V73.8M73.8 68.6V73.8M73.8 68.6H79V73.8M94.6 68.6H99.8M94.6 68.6V73.8M99.8 68.6H105M99.8 68.6V73.8M105 68.6H110.2M105 68.6V73.8M110.2 68.6H115.4M110.2 68.6V73.8M115.4 68.6V73.8M115.4 68.6H120.6M125.8 68.6V63.4H120.6V68.6M125.8 68.6H120.6M125.8 68.6H131V73.8M125.8 68.6V73.8M120.6 68.6V73.8M6.2 73.8H1M6.2 73.8V79M6.2 73.8H11.4M1 73.8V79M16.6 73.8H11.4M16.6 73.8H21.8M16.6 73.8V79M11.4 73.8V79H6.2M21.8 73.8V79M37.4 73.8H32.2V79H37.4M37.4 73.8V79M53 73.8H58.2M53 73.8V79H58.2M63.4 73.8H58.2M63.4 73.8V79H58.2M58.2 73.8V79M73.8 73.8H68.6M73.8 73.8H79M73.8 73.8V79M68.6 73.8V79H73.8M79 73.8V79M79 73.8H84.2V79M99.8 73.8H94.6M99.8 73.8H105M99.8 73.8V79M94.6 73.8H89.4V79M94.6 73.8V79H89.4M105 73.8V79M105 73.8H110.2M115.4 73.8H110.2M115.4 73.8H120.6M115.4 73.8V79M110.2 73.8V79M120.6 73.8V79M131 73.8H125.8M131 73.8V79M125.8 73.8V79M6.2 79H1M6.2 79V84.2M1 79V84.2M21.8 79H16.6M21.8 79V84.2M21.8 79H27V84.2M16.6 79V84.2M37.4 79H42.6V84.2M37.4 79V84.2M73.8 79H79M79 79H84.2M84.2 79H89.4M84.2 79V84.2M89.4 79V84.2M105 79H99.8M105 79H110.2M105 79V84.2M99.8 79V84.2M110.2 79V84.2M110.2 79H115.4M120.6 79H115.4M120.6 79V84.2H115.4M115.4 79V84.2M131 79H125.8M131 79V84.2H125.8V79M6.2 84.2H1M6.2 84.2V89.4H1V84.2M21.8 84.2H16.6M21.8 84.2H27M21.8 84.2V89.4M16.6 84.2H11.4V89.4H16.6M16.6 84.2V89.4M27 84.2V89.4M27 84.2H32.2M42.6 84.2H37.4M42.6 84.2V89.4M37.4 84.2H32.2M37.4 84.2V89.4M89.4 84.2H84.2M89.4 84.2V89.4M89.4 84.2H94.6M84.2 84.2H79M84.2 84.2V89.4M105 84.2H99.8M105 84.2H110.2M105 84.2V89.4M99.8 84.2H94.6M99.8 84.2V89.4M110.2 84.2H115.4M110.2 84.2V89.4M16.6 89.4H21.8M21.8 89.4H27M27 89.4H32.2M32.2 84.2V89.4M32.2 89.4H37.4M37.4 89.4H42.6M42.6 89.4H47.8M42.6 89.4V94.6M68.6 84.2H63.4V89.4M68.6 84.2V89.4M68.6 84.2H73.8M68.6 89.4H63.4M68.6 89.4H73.8M68.6 89.4V94.6M63.4 89.4H58.2V94.6M63.4 89.4V94.6M73.8 84.2V89.4M73.8 84.2H79M73.8 89.4H79M73.8 89.4V94.6M79 84.2V89.4M79 89.4H84.2M84.2 89.4H89.4M84.2 89.4V94.6M89.4 89.4H94.6M89.4 89.4V94.6M94.6 84.2V89.4M94.6 89.4H99.8M99.8 89.4H105M105 89.4H110.2M105 89.4V94.6M110.2 89.4V94.6M110.2 89.4H115.4M47.8 89.4V94.6M47.8 89.4H53V94.6M47.8 94.6H42.6M47.8 94.6H53M47.8 94.6V99.8M42.6 94.6V99.8H47.8M53 94.6H58.2M53 94.6V99.8M63.4 94.6H58.2M63.4 94.6H68.6M63.4 94.6V99.8H58.2M58.2 94.6V99.8M68.6 94.6H73.8M73.8 94.6H79M73.8 94.6V99.8M89.4 94.6H84.2M89.4 94.6V99.8M84.2 94.6H79M84.2 94.6V99.8M110.2 94.6H105M110.2 94.6H115.4M110.2 94.6V99.8M105 94.6V99.8M115.4 89.4V94.6M115.4 89.4H120.6V94.6H115.4M6.2 94.6H1V99.8M6.2 94.6V99.8M6.2 94.6H11.4M6.2 99.8H1M6.2 99.8H11.4M6.2 99.8V105M1 99.8V105M11.4 94.6V99.8M11.4 94.6H16.6M11.4 99.8H16.6M16.6 94.6V99.8M16.6 94.6H21.8M16.6 99.8H21.8M21.8 94.6V99.8M21.8 94.6H27M21.8 99.8H27M27 94.6V99.8M27 94.6H32.2M27 99.8H32.2M32.2 94.6V99.8M32.2 94.6H37.4V99.8M32.2 99.8H37.4M32.2 99.8V105M37.4 99.8V105M47.8 99.8H53M47.8 99.8V105M58.2 99.8H53M53 99.8V105M79 94.6V99.8M79 99.8H73.8M79 99.8H84.2M79 99.8V105M73.8 99.8V105H79M84.2 99.8H89.4M84.2 99.8V105M89.4 99.8V105M110.2 99.8H105M110.2 99.8V105M105 99.8V105M6.2 105H1M6.2 105V110.2M1 105V110.2M37.4 105H32.2M37.4 105V110.2M32.2 105V110.2M53 105H47.8M53 105V110.2M47.8 105H42.6V110.2M47.8 105V110.2M79 105H84.2M84.2 105H89.4M84.2 105V110.2H89.4M89.4 105V110.2M89.4 105H94.6M110.2 105H105M110.2 105V110.2M105 105H99.8M105 105V110.2M6.2 110.2H1M6.2 110.2V115.4M1 110.2V115.4M16.6 105H11.4V110.2M16.6 105V110.2M16.6 105H21.8M16.6 110.2H11.4M16.6 110.2H21.8M16.6 110.2V115.4M11.4 110.2V115.4M21.8 105V110.2M21.8 105H27V110.2M21.8 110.2H27M21.8 110.2V115.4M27 110.2V115.4M37.4 110.2H32.2M37.4 110.2V115.4M32.2 110.2V115.4M47.8 110.2H42.6M47.8 110.2H53M47.8 110.2V115.4M42.6 110.2V115.4H47.8M53 110.2H58.2M53 110.2V115.4M89.4 110.2H94.6M89.4 110.2V115.4M94.6 105V110.2M94.6 105H99.8M94.6 110.2H99.8M94.6 110.2V115.4M99.8 105V110.2M99.8 110.2H105M105 110.2H110.2M105 110.2V115.4M110.2 110.2V115.4M125.8 105H120.6V110.2M125.8 105V110.2M125.8 105H131V110.2M125.8 110.2H120.6M125.8 110.2H131M125.8 110.2V115.4M120.6 110.2H115.4V115.4H120.6M120.6 110.2V115.4M131 110.2V115.4M6.2 115.4H1M6.2 115.4V120.6M1 115.4V120.6M16.6 115.4H11.4M16.6 115.4H21.8M16.6 115.4V120.6M11.4 115.4V120.6H16.6M21.8 115.4H27M21.8 115.4V120.6M27 115.4V120.6H21.8M37.4 115.4H32.2M37.4 115.4V120.6M32.2 115.4V120.6M47.8 115.4H53M47.8 115.4V120.6H53M58.2 110.2V115.4M58.2 110.2H63.4V115.4M58.2 115.4H53M58.2 115.4H63.4M58.2 115.4V120.6M53 115.4V120.6M63.4 115.4V120.6M63.4 115.4H68.6M73.8 110.2H68.6V115.4M73.8 110.2V115.4M73.8 110.2H79V115.4M73.8 115.4H68.6M73.8 115.4H79M73.8 115.4V120.6M68.6 115.4V120.6H63.4M79 115.4V120.6M94.6 115.4H89.4M94.6 115.4V120.6M94.6 115.4H99.8M89.4 115.4H84.2V120.6M89.4 115.4V120.6M110.2 115.4H105M110.2 115.4V120.6M105 115.4H99.8M105 115.4V120.6M120.6 115.4H125.8M120.6 115.4V120.6M131 115.4H125.8M131 115.4V120.6H125.8M125.8 115.4V120.6M6.2 120.6H1M6.2 120.6V125.8M1 120.6V125.8M16.6 120.6H21.8M37.4 120.6H32.2M37.4 120.6V125.8M32.2 120.6V125.8M53 120.6H58.2M53 120.6V125.8M63.4 120.6H58.2M63.4 120.6V125.8H58.2M58.2 120.6V125.8M79 120.6H73.8M79 120.6V125.8M79 120.6H84.2M73.8 120.6V125.8M89.4 120.6H84.2M89.4 120.6H94.6M89.4 120.6V125.8M84.2 120.6V125.8M94.6 120.6H99.8M94.6 120.6V125.8M99.8 115.4V120.6M99.8 120.6H105M99.8 120.6V125.8M105 120.6H110.2M110.2 120.6H115.4V125.8M110.2 120.6V125.8M125.8 120.6H120.6M125.8 120.6V125.8M120.6 120.6V125.8M6.2 125.8H1M6.2 125.8V131M6.2 125.8H11.4M1 125.8V131H6.2M37.4 125.8H32.2M37.4 125.8V131H32.2M32.2 125.8H27M32.2 125.8V131M58.2 125.8H53M58.2 125.8V131H53V125.8M79 125.8H73.8M79 125.8H84.2M79 125.8V131M73.8 125.8V131H79M84.2 125.8H89.4M84.2 125.8V131M89.4 125.8H94.6M89.4 125.8V131H84.2M94.6 125.8H99.8M94.6 125.8V131H99.8V125.8M115.4 125.8H110.2M115.4 125.8V131H110.2V125.8M125.8 125.8H120.6M125.8 125.8V131M125.8 125.8H131V131H125.8M120.6 125.8V131H125.8M6.2 131H11.4M11.4 125.8V131M11.4 125.8H16.6M11.4 131H16.6M16.6 125.8V131M16.6 125.8H21.8M16.6 131H21.8M21.8 125.8V131M21.8 125.8H27M21.8 131H27M27 125.8V131M27 131H32.2M79 131H84.2M125.8 89.4H131V94.6H125.8V89.4ZM94.6 94.6H99.8V99.8H94.6V94.6Z" stroke="black" stroke-width="0.5"/>
</svg>
